<?xml version="1.0" standalone="no"?>
<!DOCTYPE svg PUBLIC "-//W3C//DTD SVG 20010904//EN"
 "http://www.w3.org/TR/2001/REC-SVG-20010904/DTD/svg10.dtd">
<svg version="1.0" xmlns="http://www.w3.org/2000/svg"
 width="260.000000pt" height="260.000000pt" viewBox="0 0 260.000000 260.000000"
 preserveAspectRatio="xMidYMid meet">
<metadata>
Created by potrace 1.14, written by Peter Selinger 2001-2017
</metadata>
<g transform="translate(0.000000,260.000000) scale(0.100000,-0.100000)"
fill="#000000" stroke="none">
<path d="M1198 2596 c-1 -2 -34 -6 -73 -9 -74 -6 -168 -28 -219 -52 -17 -7
-48 -21 -68 -29 -95 -38 -235 -149 -304 -241 -171 -226 -213 -582 -102 -860
126 -318 458 -602 923 -790 22 -9 35 -19 29 -23 -24 -16 -24 -43 1 -68 13 -13
31 -24 39 -24 13 0 13 -4 0 -35 -18 -45 -18 -90 2 -109 15 -16 23 -18 78 -20
27 -1 30 -5 40 -56 24 -116 89 -172 195 -165 31 2 94 16 140 30 155 46 216 32
323 -76 69 -69 98 -80 98 -35 0 34 -91 128 -158 164 -64 34 -125 44 -187 30
-22 -6 -47 -11 -55 -13 -8 -2 -48 -12 -87 -23 -127 -36 -176 -14 -207 91 -16
55 -12 68 30 95 59 38 61 86 5 136 l-20 19 24 19 c14 11 25 30 25 43 0 25 -24
55 -43 55 -6 0 9 21 34 48 203 212 366 512 419 773 70 338 -9 666 -209 874
-44 45 -178 145 -196 145 -3 0 -24 9 -48 19 -93 42 -207 69 -317 77 -47 3 -90
7 -97 9 -6 2 -13 2 -15 1z"/>
</g>
</svg>
