<?xml version="1.0" standalone="no"?>
<!DOCTYPE svg PUBLIC "-//W3C//DTD SVG 20010904//EN"
 "http://www.w3.org/TR/2001/REC-SVG-20010904/DTD/svg10.dtd">
<svg version="1.0" xmlns="http://www.w3.org/2000/svg"
 width="1500.000000pt" height="1500.000000pt" viewBox="0 0 1500.000000 1500.000000"
 preserveAspectRatio="xMidYMid meet">
<metadata>
Created by potrace 1.14, written by Peter Selinger 2001-2017
</metadata>
<g transform="translate(0.000000,1500.000000) scale(0.100000,-0.100000)"
fill="#000000" stroke="none">
<path d="M6615 14953 c-686 -35 -1531 -306 -2220 -711 -1250 -736 -2008 -1896
-2210 -3381 -66 -488 -72 -1106 -15 -1556 126 -991 549 -1921 1263 -2778 789
-948 1945 -1808 3372 -2512 353 -173 672 -316 1041 -464 l191 -77 -60 -54
c-81 -73 -111 -138 -105 -224 13 -157 136 -267 331 -298 42 -7 77 -16 77 -21
0 -4 -18 -50 -40 -101 -203 -478 -146 -758 166 -815 80 -15 211 -14 324 3 52
8 95 14 96 13 1 -1 7 -60 13 -132 53 -600 302 -1004 708 -1149 231 -82 536
-79 887 10 56 14 223 61 371 104 472 138 606 165 825 164 134 -1 168 -4 253
-27 354 -94 732 -397 1038 -829 60 -83 114 -113 195 -106 138 12 224 159 164
282 -29 60 -194 276 -299 390 -310 338 -655 559 -1028 658 -114 30 -126 32
-323 32 -282 0 -426 -27 -935 -178 -420 -124 -577 -156 -766 -156 -243 0 -398
75 -513 248 -107 163 -174 417 -179 685 l-2 119 85 37 c311 134 437 313 372
527 -36 119 -108 221 -258 366 -41 40 -74 75 -74 79 0 3 26 22 58 42 70 43
161 137 192 197 53 104 33 237 -45 309 -51 47 -94 67 -181 83 l-63 11 112 121
c778 837 1391 1703 1851 2616 495 981 754 1858 848 2865 20 214 17 845 -5
1065 -34 334 -80 610 -153 910 -373 1539 -1264 2616 -2644 3195 -476 200
-1091 350 -1675 410 -311 31 -750 43 -1040 28z m620 -803 c339 -16 651 -50
952 -106 467 -86 1197 -399 1593 -683 268 -192 648 -580 818 -832 202 -302
408 -740 541 -1152 65 -202 84 -279 116 -461 127 -743 121 -1489 -21 -2266
-89 -490 -396 -1303 -734 -1941 -468 -885 -950 -1549 -1712 -2356 -116 -123
-213 -223 -217 -223 -10 0 -303 114 -496 193 -988 403 -2031 977 -2714 1492
-555 419 -1077 922 -1465 1410 -401 506 -799 1342 -890 1870 -106 623 -92
1483 35 2074 79 365 313 902 557 1276 218 335 680 782 1040 1007 409 255 889
469 1367 608 268 78 735 112 1230 90z"/>
<path d="M5195 13281 c-108 -50 -538 -453 -746 -701 -302 -358 -545 -724 -741
-1117 -97 -194 -112 -246 -88 -317 44 -135 224 -181 328 -83 13 12 57 90 97
172 314 641 788 1244 1305 1662 125 101 158 186 111 288 -46 100 -165 143
-266 96z"/>
<path d="M8904 13041 c-82 -37 -134 -139 -114 -224 9 -43 54 -115 75 -123 23
-9 177 -186 168 -194 -4 -4 -62 -26 -128 -50 -145 -51 -544 -208 -827 -323
l-206 -85 -71 182 c-96 243 -116 283 -163 314 -97 64 -246 25 -298 -78 -42
-82 -23 -165 109 -482 22 -51 38 -94 38 -94 -2 -2 -310 -116 -406 -151 -210
-76 -175 -386 46 -401 61 -4 140 21 413 127 58 22 108 41 113 41 8 0 32 -50
173 -366 119 -268 207 -488 273 -677 28 -82 51 -150 51 -152 0 -6 -136 -48
-290 -90 -74 -20 -159 -43 -187 -51 -163 -45 -215 -232 -98 -350 26 -26 57
-45 87 -53 56 -16 90 -10 353 66 105 30 199 57 211 60 18 4 22 -1 28 -39 5
-23 10 -108 12 -187 2 -79 8 -159 14 -177 12 -36 76 -99 116 -114 96 -37 220
17 265 115 24 52 26 253 4 421 -9 65 -12 120 -8 124 4 4 55 23 113 44 159 57
653 255 850 340 128 56 176 72 182 63 4 -6 8 -30 8 -52 3 -147 28 -393 43
-421 22 -42 77 -89 122 -104 86 -28 198 18 243 100 23 44 24 49 18 205 -4 88
-13 227 -21 309 -8 83 -12 152 -9 155 3 3 60 30 126 61 105 47 126 61 152 97
80 114 18 287 -115 323 -50 14 -93 7 -173 -27 -32 -13 -59 -23 -60 -21 -1 2
-17 68 -35 148 -69 303 -162 563 -302 844 -49 99 -88 181 -86 182 1 1 63 16
137 34 87 20 148 41 172 57 42 29 88 111 88 157 0 115 -96 216 -204 216 -25 0
-126 -21 -223 -46 -98 -25 -187 -48 -198 -51 -16 -3 -37 16 -95 89 -108 133
-268 294 -312 312 -50 21 -124 20 -174 -3z m439 -968 c181 -315 322 -703 390
-1075 l14 -76 -281 -121 c-369 -157 -884 -361 -913 -361 -5 0 -17 26 -27 58
-59 189 -207 556 -380 940 -53 116 -96 216 -96 220 0 5 35 23 78 40 42 17 190
76 327 132 216 88 655 255 795 303 25 8 46 16 47 16 1 1 21 -34 46 -76z"/>
<path d="M10405 8421 c-49 -22 -66 -41 -143 -157 -339 -509 -894 -1116 -1429
-1561 -286 -238 -643 -488 -933 -653 -80 -46 -156 -92 -169 -104 -34 -30 -61
-94 -61 -146 0 -152 152 -243 295 -176 212 98 759 466 1050 705 428 351 883
806 1214 1215 195 242 416 549 446 620 30 72 9 172 -46 223 -58 53 -152 67
-224 34z"/>
</g>
</svg>
